<?xml version="1.0" encoding="UTF-8"?>
<svg width="32" height="32" viewBox="0 0 32 32" fill="none" xmlns="http://www.w3.org/2000/svg">
  <!-- Background circle -->
  <circle cx="16" cy="16" r="16" fill="#fb923c"/>
  
  <!-- Letter A -->
  <path d="M10 24L14 14H18L22 24H18.5L17.5 21H14.5L13.5 24H10ZM15.5 19L16.5 16H15.5L15.5 19Z" fill="#ffffff"/>
  
  <!-- Letter S -->
  <path d="M12 14C12 13.4477 12.4477 13 13 13H19C19.5523 13 20 13.4477 20 14V16C20 16.5523 19.5523 17 19 17H13C12.4477 17 12 16.5523 12 16V14ZM13 19C12.4477 19 12 19.4477 12 20V22C12 22.5523 12.4477 23 13 23H19C19.5523 23 20 22.5523 20 22V20C20 19.4477 19.5523 19 19 19H13Z" fill="#ffffff"/>
</svg> 